<svg xmlns="http://www.w3.org/2000/svg" xmlns:xlink="http://www.w3.org/1999/xlink" viewBox="0 0 248 117"><defs><style>.cls-1{fill:#f49ff7;}.cls-2{fill:#3e70dd;}.cls-3{fill:#fff;}.cls-4{fill:#f7c9f7;}.cls-5{fill:url(#linear-gradient);}.cls-6{fill:url(#linear-gradient-2);}.cls-7{fill:#6a94ff;}.cls-8{fill:url(#linear-gradient-3);}.cls-9{fill:#f47fff;}.cls-10{fill:#7196ff;}.cls-11{fill:#a9c7ff;}.cls-12{fill:#202225;}.cls-13{fill:#d4e4ff;}.cls-14,.cls-23,.cls-24{fill:none;}.cls-14{stroke:#36393f;stroke-miterlimit:10;stroke-width:8px;}.cls-14,.cls-23{stroke-linecap:round;}.cls-15{fill:#36393f;}.cls-16{fill:#f8f9f9;}.cls-17{fill:#d954e6;}.cls-18{fill:#f7e080;}.cls-19{fill:#f7d036;}.cls-20{fill:#ffd01a;}.cls-21{fill:#f5b312;}.cls-22{fill:#e3e5e8;}.cls-23{stroke:#f49ff7;}.cls-23,.cls-24{stroke-linejoin:round;stroke-width:1.42px;}.cls-24{stroke:#113484;}</style><linearGradient id="linear-gradient" x1="75.53" y1="55.54" x2="106.13" y2="37.19" gradientUnits="userSpaceOnUse"><stop offset="0" stop-color="#3e70dd"/><stop offset="0.6" stop-color="#6089f4"/><stop offset="1" stop-color="#7196ff"/></linearGradient><linearGradient id="linear-gradient-2" x1="62.7" y1="43.2" x2="43.36" y2="60.94" xlink:href="#linear-gradient"/><linearGradient id="linear-gradient-3" x1="57.16" y1="54.25" x2="93.04" y2="37.9" xlink:href="#linear-gradient"/></defs><g id="Layer_3" data-name="Layer 3"><path class="cls-1" d="M124,0h98.9a5,5,0,0,1,5,5V58.5H124Z"/><path class="cls-2" d="M124,58.5H227.9V112a5,5,0,0,1-5,5H124Z"/><path class="cls-3" d="M25.1,0H124V58.5H20.1V5A5,5,0,0,1,25.1,0Z"/><path class="cls-4" d="M20.1,58.5H124V117H25.1a5,5,0,0,1-5-5Z"/><path class="cls-5" d="M106,32.4l.43-2.55a4.76,4.76,0,0,0-3.68,2.06A31.84,31.84,0,0,1,92.57,42a9,9,0,0,1-3.83,2.59l.6,2.47,1.58,6.49.16-.05c10-4.42,15.06-9.7,19.52-16.28.06-.08.11-.17.16-.25a4.73,4.73,0,0,0,.6-1.67l-3.77-.64A2,2,0,0,1,106,32.4Z"/><path class="cls-6" d="M52.9,48.68a9.87,9.87,0,0,1-1.21-.21,3.55,3.55,0,0,0-.47.32,45.41,45.41,0,0,0-8.93,9.71H51.5l.82-5.7Z"/><polygon class="cls-7" points="52.32 52.8 51.51 58.5 92.12 58.5 90.92 53.59 89.34 47.1 52.32 52.8"/><path class="cls-7" d="M54.81,48.67a9.39,9.39,0,0,1-1.91,0l-.58,4.12,37-5.7-.6-2.47a8.71,8.71,0,0,1-2,.47Z"/><path class="cls-8" d="M54.81,48.67a9.39,9.39,0,0,1-1.91,0l-.58,4.12,37-5.7-.6-2.47a8.71,8.71,0,0,1-2,.47Z"/><path class="cls-9" d="M86.24,12.84l-.81.09A9.09,9.09,0,0,1,91.8,17a10,10,0,0,1,5.13,2,11.71,11.71,0,0,0-12.69-8.79h0L50,14.09h0l33.14-3.72A2.82,2.82,0,0,1,86.24,12.84Z"/><path class="cls-9" d="M93.21,20.93l1.55,13.82a13.57,13.57,0,0,0,2-2.95,11.84,11.84,0,0,0,.65-1.51c.08-.21.15-.42.22-.64v0l0-.05.06-.25a6.56,6.56,0,0,0,.22-1.07c.16-1.45,2.39-1.09,2.23.35a9.58,9.58,0,0,1-.34,1.5,15.72,15.72,0,0,1-1.44,3.41A10,10,0,0,0,91.8,17,9,9,0,0,1,93.21,20.93Z"/><path class="cls-9" d="M43.13,23.25a1.22,1.22,0,0,1,.27,0,9.09,9.09,0,0,1,7.8-6.79l31.94-3.58a9.2,9.2,0,0,1,2.29,0l.81-.09a2.82,2.82,0,0,0-3.12-2.47L50,14.09l-1.12.12h0a11.73,11.73,0,0,0-10.27,9.66A10,10,0,0,1,43,22.25Z"/><path class="cls-9" d="M40.21,33.13c-.58-5.21.73-9.64,2.92-9.88h0l-.11-1a10,10,0,0,0,2,19.89h0C42.91,42.11,40.78,38.18,40.21,33.13Z"/><path class="cls-10" d="M52.9,48.68a9.39,9.39,0,0,0,1.91,0L86.74,45.1a8.71,8.71,0,0,0,2-.47A9.15,9.15,0,0,0,94.63,38,22,22,0,0,1,83,42.55a1.13,1.13,0,0,1-.25-2.24,22.12,22.12,0,0,0,7.71-2.22,14.75,14.75,0,0,0,4.27-3.34L93.21,20.93A9,9,0,0,0,91.8,17a9.09,9.09,0,0,0-6.37-4.07,9.2,9.2,0,0,0-2.29,0L51.2,16.46a9.09,9.09,0,0,0-7.8,6.79c2.1.09,4.2,4,4.76,9,.59,5.22-.72,9.64-2.91,9.89H45a9.14,9.14,0,0,0,6.65,6.33A9.87,9.87,0,0,0,52.9,48.68Zm23.29-10-9.26,1a7.78,7.78,0,0,1-8.6-6.86l-.73-6.48a2.93,2.93,0,0,1,2.58-3.23l18.34-2.05a2.93,2.93,0,0,1,3.23,2.58l.79,7.06A7.2,7.2,0,0,1,76.19,38.68ZM88,29a2.74,2.74,0,1,1,2.41-3A2.74,2.74,0,0,1,88,29ZM49.83,30.8a2.74,2.74,0,1,1,3,2.41A2.74,2.74,0,0,1,49.83,30.8Z"/><path class="cls-11" d="M81.75,23.67a2.93,2.93,0,0,0-3.23-2.58L60.18,23.14a2.93,2.93,0,0,0-2.58,3.23l.73,6.48a7.78,7.78,0,0,0,8.6,6.86l9.26-1a7.2,7.2,0,0,0,6.35-7.95ZM70.48,34.88l-4,.44a1.26,1.26,0,1,1-.28-2.51l3.52-.4a1.28,1.28,0,0,1,1.4,1.12C71.21,34.22,71.17,34.81,70.48,34.88Zm7.4-.71-2.52.28a1.27,1.27,0,1,1-.28-2.52l2.52-.28a1.27,1.27,0,0,1,.28,2.52Z"/><path class="cls-12" d="M87.41,23.6a2.74,2.74,0,1,0,3,2.42A2.76,2.76,0,0,0,87.41,23.6Z"/><path class="cls-12" d="M52.86,33.21a2.73,2.73,0,1,0-3-2.41A2.73,2.73,0,0,0,52.86,33.21Z"/><path class="cls-10" d="M77.6,31.65l-2.52.28a1.27,1.27,0,1,0,.28,2.52l2.52-.28a1.27,1.27,0,0,0-.28-2.52Z"/><path class="cls-10" d="M69.74,32.41l-3.52.4a1.26,1.26,0,1,0,.28,2.51l4-.44c.69-.07.73-.66.66-1.35A1.28,1.28,0,0,0,69.74,32.41Z"/><path class="cls-9" d="M100.17,28.59c.16-1.44-2.07-1.8-2.23-.35a6.56,6.56,0,0,1-.22,1.07l-.06.25,0,.05v0c-.07.22-.14.43-.22.64a11.84,11.84,0,0,1-.65,1.51,13.57,13.57,0,0,1-2,2.95,14.75,14.75,0,0,1-4.27,3.34,22.12,22.12,0,0,1-7.71,2.22A1.13,1.13,0,0,0,83,42.55,22,22,0,0,0,94.63,38c.34-.28.68-.57,1-.88a16,16,0,0,0,2.76-3.6,15.72,15.72,0,0,0,1.44-3.41A9.58,9.58,0,0,0,100.17,28.59Z"/><path class="cls-9" d="M43.13,23.25c-2.19.24-3.5,4.67-2.92,9.88.57,5,2.7,9,4.83,9h.21c2.19-.25,3.5-4.67,2.91-9.89-.56-5-2.66-8.9-4.76-9a1.22,1.22,0,0,0-.27,0Z"/><path class="cls-13" d="M124,14.85,111.33,12.7A2,2,0,0,0,109,14.34l-2.63,15.51L106,32.4a2,2,0,0,0,1.63,2.3l3.77.64,11,1.88a2,2,0,0,0,1.59-.43Z"/><path class="cls-14" d="M77.5,110.72c12,0,16.5-7.72,16.5-7.72"/><path class="cls-14" d="M51,90s1.5,16.5,15,19"/><path class="cls-15" d="M72,86.58A10,10,0,0,0,61.91,96.4l-.08,5.27a16.9,16.9,0,0,1-3.34,9.65,15.74,15.74,0,0,0-2.6,5.68H87.1a15.9,15.9,0,0,0-2.27-5.19,17,17,0,0,1-3-9.67l.08-5.44A10,10,0,0,0,72,86.58Z"/><rect class="cls-3" x="140" y="67" width="69" height="41" rx="2" transform="translate(-6.37 14.08) rotate(-4.54)"/><rect class="cls-16" x="211.67" y="77.23" width="9.36" height="3.66" transform="translate(172.44 -147.06) rotate(58.94)"/><path class="cls-17" d="M217.43,74.85h4.66a2.35,2.35,0,0,1,2.35,2.35v2a0,0,0,0,1,0,0h-9.36a0,0,0,0,1,0,0v-2A2.35,2.35,0,0,1,217.43,74.85Z" transform="translate(172.34 -150.97) rotate(58.94)"/><path class="cls-18" d="M212.36,76,194.12,87l-2.92,6.58a.68.68,0,0,0,.57.94L199,95l18.24-11Z"/><rect class="cls-19" x="202.49" y="72.17" width="3.12" height="21.3" transform="translate(169.72 -134.7) rotate(58.94)"/><rect class="cls-20" x="204.1" y="74.84" width="3.12" height="21.3" transform="translate(172.79 -134.78) rotate(58.94)"/><rect class="cls-19" x="205.7" y="77.52" width="3.12" height="21.3" transform="translate(175.85 -134.87) rotate(58.94)"/><rect class="cls-21" x="204.1" y="74.84" width="3.12" height="21.3" transform="translate(172.79 -134.78) rotate(58.94)"/><path class="cls-22" d="M213.38,75.41l4.29,7,.61,1c.47.76,1.67.06,1.2-.7l-4.29-7-.61-1c-.46-.76-1.66-.06-1.2.7Z"/><path class="cls-15" d="M192.08,91.59l-.88,2a.68.68,0,0,0,.57.94l2.13.15,0-.24A2.78,2.78,0,0,0,192.08,91.59Z"/><path class="cls-10" d="M146.16,75.15a19.91,19.91,0,0,0,12.62,13.23c5.91,2,14,1.21,18.4-3.6,1.94-2.11,3.49-5.78.81-8-2.14-1.75-5.22-1.27-7.52-.12a11,11,0,0,0-4.42,15.24c3.88,6.62,14.25,7.69,20.64,4.56,1.74-.85.22-3.44-1.51-2.6a14,14,0,0,1-7.78,1.15c-2.52-.29-5.36-1-7.28-2.8a7.93,7.93,0,0,1,0-11.68c1.33-1.23,3.53-2.4,5.38-1.75,2.43.86-.42,4-1.52,4.85-4,3.06-9.8,3.36-14.4,1.82a16.79,16.79,0,0,1-10.53-11.14c-.54-1.84-3.44-1.06-2.89.8Z"/><path class="cls-9" d="M152.07,94.93a10,10,0,0,0-14.14,0c-6,6-10.64,8.91-13.93,10.34V117h19a84.85,84.85,0,0,0,9-7.93A10,10,0,0,0,152.07,94.93Z"/><path class="cls-9" d="M214.65,90.56a10,10,0,1,0-15.3,12.88A78,78,0,0,0,213.85,117h9.05a5,5,0,0,0,5-5v-9.65A54.81,54.81,0,0,1,214.65,90.56Z"/><path class="cls-10" d="M156.7,42.6h6.05a0,0,0,0,1,0,0v8.9a0,0,0,0,1,0,0H156.7a1.78,1.78,0,0,1-1.78-1.78V44.38A1.78,1.78,0,0,1,156.7,42.6Z" transform="translate(4.93 -14.23) rotate(5.21)"/><path class="cls-10" d="M206.71,47.16h6.05a0,0,0,0,1,0,0v8.9a0,0,0,0,1,0,0h-6.05a1.78,1.78,0,0,1-1.78-1.78V48.94A1.78,1.78,0,0,1,206.71,47.16Z" transform="translate(412.14 121.98) rotate(-174.79)"/><path class="cls-3" d="M201.66,35.28l-6.41-6.92-8.53-.78-10.46-.95-7.37,5.66a77.76,77.76,0,0,0-6.26,5.85,14.07,14.07,0,0,0,1,20.36h42.51a14.06,14.06,0,0,0,.66-16.34A79.41,79.41,0,0,0,201.66,35.28Z"/><path class="cls-3" d="M146.32,46.09a4.31,4.31,0,0,0-8.49,1.51,27,27,0,0,0,4.77,10.9h14.57C148.39,56.55,146.41,46.58,146.32,46.09Z"/><path class="cls-15" d="M181,52.26l1.67,2.52a.91.91,0,0,0,1.41.12l2.1-2.17a.91.91,0,0,0-.57-1.54l-3.77-.34A.91.91,0,0,0,181,52.26Z"/><rect class="cls-15" x="188.35" y="44.37" width="7.21" height="3.08" rx="1.54" transform="translate(98.04 219.51) rotate(-75.04)"/><rect class="cls-15" x="172.91" y="42.96" width="7.21" height="3.08" rx="1.54" transform="translate(146.12 223.99) rotate(-94.54)"/><line class="cls-23" x1="192.92" y1="54.79" x2="194.35" y2="53.31"/><line class="cls-23" x1="195.81" y1="55.06" x2="197.24" y2="53.57"/><line class="cls-23" x1="198.71" y1="55.32" x2="200.14" y2="53.84"/><line class="cls-23" x1="173.96" y1="53.06" x2="172.82" y2="51.34"/><line class="cls-23" x1="171.07" y1="52.8" x2="169.93" y2="51.08"/><line class="cls-23" x1="168.17" y1="52.54" x2="167.03" y2="50.82"/><line class="cls-24" x1="186.91" y1="17.6" x2="186.01" y2="27.54"/><circle class="cls-2" cx="186.91" cy="17.6" r="4.27"/><path class="cls-10" d="M174.56,25.25h22.67a.53.53,0,0,1,.53.53V29.3a0,0,0,0,1,0,0H174a0,0,0,0,1,0,0V25.78A.53.53,0,0,1,174.56,25.25Z" transform="translate(3.25 -16.77) rotate(5.21)"/><ellipse class="cls-3" cx="198.72" cy="33.71" rx="9.32" ry="5.27" transform="translate(24.45 134.98) rotate(-39.79)"/><path class="cls-17" d="M206.27,28.77l-.31-.13c-1.12-.39-5.05.6-7,3.47-.11.16-.21.33-.31.49-1.67,2.74-1.81,5.68-.27,6.73a2.06,2.06,0,0,0,.86.33,14.94,14.94,0,0,0,2.86-1.9C205.37,35,206.59,30.88,206.27,28.77Z"/><path class="cls-3" d="M203.46,37.5s-2.92-4.35-6.56-3.61c-4.54.92.74,7.58.74,7.58Z"/><ellipse class="cls-3" cx="172.11" cy="31.29" rx="5.27" ry="9.32" transform="translate(19.84 117.39) rotate(-39.79)"/><path class="cls-17" d="M165.59,25.06a1.5,1.5,0,0,1,.32-.07c1.18-.19,4.86,1.5,6.26,4.68.08.18.16.36.22.53,1.15,3,.76,5.92-.95,6.67a2.15,2.15,0,0,1-.91.18,16.75,16.75,0,0,1-2.47-2.39C165.33,31.38,164.89,27.07,165.59,25.06Z"/><path class="cls-3" d="M166.76,34.15s3.66-3.75,7.11-2.36c4.29,1.73-2.1,7.32-2.1,7.32Z"/><circle class="cls-2" cx="141.35" cy="45.61" r="8.35"/><path class="cls-3" d="M230.12,17.58l-5.67,2a1.48,1.48,0,0,0,0,2.8l5.67,2a1.47,1.47,0,0,1,.91.91l2,5.67a1.48,1.48,0,0,0,2.8,0l2-5.67a1.49,1.49,0,0,1,.91-.91l5.68-2a1.48,1.48,0,0,0,0-2.8l-5.68-2a1.52,1.52,0,0,1-.91-.91l-2-5.68a1.48,1.48,0,0,0-2.8,0l-2,5.68A1.49,1.49,0,0,1,230.12,17.58Z"/><path class="cls-2" d="M19.77,67.53l-5.41-2.61a1.48,1.48,0,0,0-2,2L15,72.32a1.53,1.53,0,0,1,0,1.29L12.38,79a1.48,1.48,0,0,0,2,2l5.41-2.6a1.46,1.46,0,0,1,1.29,0L26.48,81a1.48,1.48,0,0,0,2-2l-2.61-5.41a1.46,1.46,0,0,1,0-1.29l2.61-5.42a1.48,1.48,0,0,0-2-2l-5.42,2.61A1.46,1.46,0,0,1,19.77,67.53Z"/><path class="cls-13" d="M9,47,7.79,43.59a.88.88,0,0,0-1.67,0L5,47a.88.88,0,0,1-.54.54L1,48.67a.88.88,0,0,0,0,1.66l3.37,1.18a.88.88,0,0,1,.54.54l1.17,3.36a.88.88,0,0,0,1.67,0L9,52.05a.88.88,0,0,1,.54-.54l3.37-1.18a.88.88,0,0,0,0-1.66L9.5,47.49A.88.88,0,0,1,9,47Z"/><rect class="cls-13" x="244.35" y="45.56" width="2.91" height="4.36" rx="1.45" transform="translate(293.54 -198.06) rotate(90)"/><rect class="cls-13" x="232.73" y="45.56" width="2.91" height="4.36" rx="1.45" transform="translate(281.92 -186.44) rotate(90)"/><rect class="cls-13" x="238.54" y="51.37" width="2.91" height="4.36" rx="1.45" transform="translate(479.98 107.11) rotate(180)"/><rect class="cls-13" x="238.54" y="39.75" width="2.91" height="4.36" rx="1.45" transform="translate(479.98 83.86) rotate(-180)"/><path class="cls-2" d="M114.52,18.38a8.93,8.93,0,0,1,2.62,9.17,2.67,2.67,0,0,1-1.43,1.68,1.58,1.58,0,0,1-1.77-.28,1.81,1.81,0,0,1,.2-2.21A4.27,4.27,0,0,1,116,25.42a5.19,5.19,0,0,1,5,.79c.74.61,1.8-.44,1.06-1.06a6.71,6.71,0,0,0-6.08-1.3c-2,.58-4.19,2.41-3.81,4.74s3.18,2.86,4.88,1.58,2.09-4.08,1.85-6.19a10.33,10.33,0,0,0-3.33-6.66c-.73-.63-1.8.43-1.07,1.06Z"/></g></svg>